# xmcd CD database file
#
# Track frame offsets:
#	180
#	33094
#	56828
#	77945
#	115788
#	144738
#	176141
#	211509
#	239675
#
# Disc length: 3724 seconds
#
# Revision: 0
# Processed by: cddbd v1.5.1PL0 Copyright (c) Steve Scherf et al.
# Submitted via: CDex 1.51
#
DISCID=7c0e8a09
DTITLE=Various Artist - MULTI TRACK COMPILATION #0
DYEAR=1900
DGENRE=Techno
TTITLE0=XMEMORIAL(H.KIKUTA)
TTITLE1=ME GO NONE(S.ORITA)
TTITLE2=JORDAN(LOOPMAN)
TTITLE3=10116(K.SATOH)
TTITLE4=MORNING CALL(Y.SAKAMOTO)
TTITLE5=PULSY LOVE(S.ORITA)
TTITLE6=NANBOKU LINE(K.SATOH)
TTITLE7=VED(H.KIKUTA)
TTITLE8=RICH and METRO(Y.SAKAMOTO)
EXTD=
EXTT0=
EXTT1=
EXTT2=
EXTT3=
EXTT4=
EXTT5=
EXTT6=
EXTT7=
EXTT8=
PLAYORDER=
